<?xml version="1.0" encoding="utf-8"?>
<!-- Generator: Adobe Illustrator 15.1.0, SVG Export Plug-In . SVG Version: 6.00 Build 0)  -->
<!DOCTYPE svg PUBLIC "-//W3C//DTD SVG 1.1//EN" "http://www.w3.org/Graphics/SVG/1.1/DTD/svg11.dtd">
<svg version="1.1" id="Layer_1" xmlns="http://www.w3.org/2000/svg" xmlns:xlink="http://www.w3.org/1999/xlink" x="0px" y="0px"
	 width="1000px" height="300px" viewBox="0 0 1000 300" enable-background="new 0 0 1000 300" xml:space="preserve">
<g>
	<g>
		<path fill="#666666" d="M393.19,128.853l-16.332,45.423c-1.502,4.255-4.852,6.381-10.045,6.381c-5.195,0-8.544-2.126-10.046-6.378
			l-10.5-29.92l-10.701,29.917c-1.502,4.255-4.849,6.381-10.041,6.381c-5.193,0-8.541-2.126-10.041-6.381l-16.048-45.423
			c-0.25-0.75-0.376-1.468-0.376-2.158c0-1.563,0.593-2.862,1.781-3.895c1.186-1.032,2.529-1.548,4.029-1.548
			c2.56,0,4.277,1.254,5.153,3.76l15.605,43.607l14.725-41.173c1.375-3.879,3.379-5.819,6.007-5.819c2.5,0,4.441,1.94,5.818,5.819
			l14.737,41.205l15.688-43.638c0.874-2.507,2.561-3.761,5.06-3.761c1.56,0,2.934,0.517,4.122,1.548
			c1.187,1.033,1.78,2.332,1.78,3.895C393.565,127.384,393.439,128.103,393.19,128.853z"/>
		<path fill="#666666" d="M446.776,165.548h-32.753c2.002,3.441,5.537,5.162,10.604,5.162c1.938,0,3.456,0.579,4.551,1.736
			c1.095,1.158,1.643,2.519,1.643,4.082c0,1.501-0.533,2.784-1.596,3.849c-1.064,1.063-2.597,1.595-4.599,1.595
			c-7.071,0-12.763-2.172-17.08-6.522c-4.317-4.348-6.476-10.089-6.476-17.222c0-7.508,2.095-13.498,6.287-17.972
			c4.192-4.472,10.042-6.71,17.55-6.71c7.195,0,12.763,2.69,16.706,8.072c3.44,4.818,5.162,10.855,5.162,18.112V165.548z
			 M434.857,154.286c-1.252-6.318-4.568-9.479-9.948-9.479c-7.071,0-11.167,3.16-12.294,9.479H434.857z"/>
		<path fill="#666666" d="M488.745,140.96c4.241,5.006,6.362,10.98,6.362,17.925c0,6.194-1.783,11.355-5.349,15.485
			c-3.942,4.631-9.355,6.945-16.236,6.945c-3.003,0-5.851-0.75-8.54-2.253c-1.064,1.502-2.566,2.253-4.504,2.253
			c-1.501,0-2.816-0.501-3.942-1.507c-1.126-1.004-1.689-2.385-1.689-4.144v-45.759c0-1.757,0.567-3.139,1.703-4.143
			c1.134-1.004,2.46-1.507,3.974-1.507c1.577,0,2.917,0.501,4.021,1.501c1.104,1.001,1.657,2.378,1.657,4.129v7.226
			c1.871-2.001,4.49-3.003,7.858-3.003C480.045,134.109,484.942,136.394,488.745,140.96z M480.037,148.187
			c-1.424-1.69-3.715-2.535-6.872-2.535c-4.643,0-6.964,1.941-6.964,5.819v11.637c0,2.128,1.083,3.88,3.25,5.255
			c1.61,1.127,2.971,1.69,4.085,1.69c3.467,0,6.098-1.126,7.894-3.378c1.547-1.877,2.321-4.378,2.321-7.509
			C483.751,154.788,482.512,151.127,480.037,148.187z"/>
		<path fill="#666666" d="M598.901,128.853l-16.33,45.423c-1.504,4.255-4.853,6.381-10.046,6.381c-5.195,0-8.545-2.126-10.046-6.378
			l-10.5-29.92l-10.701,29.917c-1.501,4.255-4.849,6.381-10.04,6.381c-5.194,0-8.541-2.126-10.042-6.381l-16.047-45.423
			c-0.251-0.75-0.376-1.468-0.376-2.158c0-1.563,0.592-2.862,1.78-3.895c1.186-1.032,2.529-1.548,4.029-1.548
			c2.561,0,4.277,1.254,5.154,3.76l15.605,43.607l14.725-41.173c1.375-3.879,3.379-5.819,6.007-5.819
			c2.501,0,4.441,1.94,5.817,5.819l14.738,41.205l15.688-43.638c0.874-2.507,2.561-3.761,5.06-3.761c1.56,0,2.934,0.517,4.122,1.548
			c1.187,1.033,1.78,2.332,1.78,3.895C599.278,127.384,599.151,128.103,598.901,128.853z"/>
		<path fill="#666666" d="M645.45,152.632v23.04c0,1.818-0.57,3.215-1.704,4.185c-1.137,0.973-2.461,1.458-3.975,1.458
			c-1.578,0-2.918-0.484-4.021-1.455c-1.104-0.969-1.656-2.361-1.656-4.175v-22.993c0-2.002-0.697-3.52-2.086-4.552
			c-1.392-1.032-3.107-1.548-5.148-1.548c-2.163,0-4.048,0.563-5.654,1.689c-1.794,1.189-2.689,2.722-2.689,4.599v22.805
			c0,1.814-0.553,3.206-1.657,4.175c-1.104,0.971-2.445,1.455-4.021,1.455c-1.515,0-2.841-0.485-3.976-1.456
			c-1.135-0.971-1.702-2.366-1.702-4.184v-47.375c0-1.817,0.567-3.212,1.702-4.182c1.135-0.971,2.46-1.458,3.976-1.458
			c1.576,0,2.917,0.485,4.021,1.454c1.104,0.972,1.657,2.364,1.657,4.177v8.822c2.868-1.187,5.767-1.783,8.697-1.783
			c4.926,0,9.103,1.473,12.533,4.42C643.548,142.947,645.45,147.242,645.45,152.632z"/>
		<path fill="#666666" d="M697.253,181.314h-25.245c-5.255,0-9.448-1.455-12.575-4.364c-3.129-2.91-4.692-7.022-4.692-12.341
			c0-5.819,2.026-10.259,6.083-13.326c3.554-2.752,8.17-4.129,13.847-4.129c1.746,0,3.648,0.407,5.707,1.22
			c2.37,0.939,4.21,2.128,5.521,3.566c0-5.129-3.112-7.695-9.332-7.695c-2.114,0-3.825-0.625-5.132-1.877
			c-1.307-1.251-1.96-2.659-1.96-4.223c0-3.44,2.377-5.162,7.133-5.162c5.818,0,10.605,1.408,14.358,4.223
			c4.191,3.129,6.288,7.477,6.288,13.045V181.314z M685.897,170.053v-4.411c0-2.377-1.333-4.224-3.997-5.538
			c-2.17-1.126-4.556-1.689-7.159-1.689c-5.765,0-8.646,2.065-8.646,6.194c0,3.692,2.479,5.506,7.438,5.443H685.897z"/>
		<path fill="#666666" d="M731.358,134.672c1.739,0,3.106,0.548,4.102,1.642c0.994,1.095,1.491,2.424,1.491,3.987
			c0,1.503-0.497,2.817-1.491,3.943c-0.995,1.125-2.363,1.689-4.102,1.689h-8.015v20.271c0,1.94,0.092,3.129,0.276,3.566
			c0.37,0.626,1.328,0.939,2.87,0.939c1.111,0,2.438-0.156,3.981-0.47c1.666-0.25,3.161,0.22,4.489,1.408
			c1.327,1.189,1.992,2.597,1.992,4.224c0,4.067-3.522,6.1-10.566,6.1c-9.599,0-14.398-5.256-14.398-15.766V145.84
			c-1.565-0.125-2.784-0.719-3.66-1.783c-0.876-1.064-1.314-2.314-1.314-3.755c0-1.75,1.657-3.627,4.974-5.629v-4.505
			c0-1.75,0.568-3.127,1.703-4.128c1.135-1,2.46-1.502,3.975-1.502c1.576,0,2.917,0.502,4.021,1.502
			c1.104,1.001,1.657,2.378,1.657,4.128v4.505H731.358z"/>
		<path fill="#666666" d="M785.938,165.735c0,5.757-2.346,10.011-7.038,12.763c-3.754,2.191-8.697,3.285-14.828,3.285
			c-3.629,0-7.977-0.938-13.045-2.816c-2.503-0.876-3.754-2.564-3.754-5.068c0-1.5,0.517-2.862,1.553-4.082
			c1.035-1.221,2.339-1.832,3.909-1.832c0.69,0,1.381,0.159,2.073,0.471c3.891,1.377,6.998,2.065,9.323,2.065
			c2.323,0,4.426-0.282,6.308-0.845c2.763-0.813,4.144-2.065,4.144-3.754c0-1.188-2.511-2.22-7.533-3.097
			c-6.654-1.126-11.08-2.189-13.276-3.19c-4.959-2.253-7.439-5.819-7.439-10.7c0-5.255,2.346-9.321,7.039-12.2
			c3.942-2.44,8.695-3.66,14.265-3.66c4.692,0,8.852,0.814,12.481,2.44c2.252,1.002,3.378,2.66,3.378,4.974
			c0,1.502-0.533,2.862-1.595,4.083c-1.064,1.22-2.346,1.831-3.848,1.831c-0.877,0-1.722-0.188-2.534-0.563
			c-2.19-1-4.818-1.501-7.883-1.501c-2.942,0-4.849,0.063-5.725,0.188c-2.69,0.502-4.035,1.689-4.035,3.566
			c0,1.065,2.658,2.159,7.977,3.285c6.945,1.44,11.293,2.535,13.045,3.285C783.592,156.665,785.938,160.355,785.938,165.735z"/>
		<path fill="#666666" d="M848.16,173.712c0.249,0.751,0.375,1.44,0.375,2.065c0,1.627-0.598,2.957-1.794,3.989
			c-1.196,1.032-2.582,1.548-4.156,1.548c-2.519,0-4.219-1.243-5.1-3.729l-3.65-10.067h-23.862l-3.687,10.037
			c-0.875,2.506-2.592,3.759-5.152,3.759c-1.5,0-2.844-0.516-4.029-1.548c-1.188-1.032-1.781-2.331-1.781-3.895
			c0-0.688,0.125-1.408,0.375-2.159l16.237-45.422c1.563-4.191,4.911-6.288,10.042-6.288c5.191,0,8.569,2.124,10.134,6.37
			L848.16,173.712z M829.917,156.445l-8.096-22.628l-7.989,22.628H829.917z"/>
		<path fill="#666666" d="M906.72,141.805c0,5.442-1.778,10.135-5.336,14.077c-3.557,3.941-8.019,5.913-13.386,5.913h-18.91v13.862
			c0,1.824-0.569,3.223-1.704,4.197c-1.135,0.976-2.461,1.462-3.974,1.462c-1.515,0-2.841-0.485-3.975-1.456
			c-1.136-0.971-1.703-2.366-1.703-4.184v-53.016h30.219c5.443,0,9.932,1.863,13.467,5.584
			C904.951,131.966,906.72,136.487,906.72,141.805z M895.364,141.805c0-2.378-0.7-4.285-2.097-5.724
			c-1.399-1.439-3.186-2.16-5.358-2.16h-18.822v16.611h18.796c2.243,0,4.052-0.875,5.424-2.628
			C894.678,146.153,895.364,144.12,895.364,141.805z"/>
		<path fill="#666666" d="M925.771,175.675c0,1.818-0.553,3.213-1.657,4.184c-1.104,0.97-2.444,1.456-4.021,1.456
			c-1.515,0-2.84-0.485-3.976-1.456c-1.135-0.971-1.702-2.366-1.702-4.184v-47.375c0-1.754,0.567-3.132,1.702-4.136
			c1.135-1.003,2.461-1.504,3.976-1.504c1.576,0,2.917,0.501,4.021,1.504c1.104,1.003,1.657,2.382,1.657,4.136V175.675z"/>
	</g>
	<g>
		<g>
			<g>
				<path fill="#48BE32" d="M195.824,64.143c-29.695-4.694-58.316,6.316-77.369,26.867c0.087,0.007,0.17,0.02,0.258,0.035
					c6.031,0.954,10.846,5.162,12.324,10.748l3.817,11.834c0.039,0.112,0.078,0.219,0.106,0.32l0.041,0.13
					c0.016,0.053,0.036,0.1,0.049,0.153c12.775-16.817,34.171-26.27,56.453-22.747c32.254,5.098,54.352,35.493,49.251,67.754
					c-5.099,32.254-35.494,54.351-67.75,49.252c-24.922-3.94-43.781-22.978-48.717-46.312c-0.421-1.983-0.736-3.994-0.952-6.036
					c4.787-3.613,8.3-9.255,9.359-15.96c0.446-2.821,0.42-5.594-0.015-8.23l0-0.006c-0.001-0.017-0.006-0.028-0.01-0.046
					l-2.006-11.016l-0.299-1.628c-0.057-1.203-0.279-2.376-0.639-3.508l-0.004-0.012c-0.034-0.101-0.062-0.207-0.103-0.308
					l-3.906-12.096c-0.842-3.395-3.88-6.19-7.866-6.82c-1.482-0.234-2.925-0.143-4.253,0.213c-2.249,0.609-4.163,1.976-5.326,3.837
					l-7.653,10.583l-0.015,0.025c-0.676,0.948-1.237,1.974-1.658,3.073l-6.151,11.403l0.017,0.001
					c-1.221,2.375-2.101,5.004-2.548,7.826c-1.173,7.419,0.915,14.525,5.127,19.581c0.094,2.737,0.32,5.452,0.674,8.137
					c4.853,37.23,33.695,68.484,72.622,74.639c47.33,7.481,91.927-24.941,99.411-72.271
					C275.578,116.224,243.154,71.625,195.824,64.143z"/>
				<path fill="#48BE32" d="M100.496,193.005c-1.24,14.243-6.464,36.045-26.266,43.926c0,0,25.585,0.187,42.445-21.834
					c-0.361-0.366-0.721-0.731-1.077-1.103C109.6,207.734,104.52,200.639,100.496,193.005z"/>
			</g>
		</g>
		<g>
			<path fill="#48BE32" d="M153.337,162.259c-6.457,0-11.708-5.252-11.708-11.709c0-6.456,5.252-11.709,11.708-11.709
				c6.457,0,11.708,5.253,11.708,11.709C165.045,157.006,159.794,162.259,153.337,162.259z"/>
			<path fill="#48BE32" d="M182.086,162.259c-6.457,0-11.709-5.252-11.709-11.709c0-6.456,5.253-11.709,11.709-11.709
				c6.456,0,11.708,5.253,11.708,11.709C193.794,157.006,188.542,162.259,182.086,162.259z"/>
			<path fill="#48BE32" d="M210.834,162.259c-6.457,0-11.71-5.252-11.71-11.709c0-6.456,5.253-11.709,11.71-11.709
				c6.456,0,11.709,5.253,11.709,11.709C222.543,157.006,217.291,162.259,210.834,162.259z"/>
		</g>
	</g>
</g>
</svg>
