<?xml version="1.0" encoding="utf-8"?>
<!-- Generator: Adobe Illustrator 15.1.0, SVG Export Plug-In . SVG Version: 6.00 Build 0)  -->
<!DOCTYPE svg PUBLIC "-//W3C//DTD SVG 1.1//EN" "http://www.w3.org/Graphics/SVG/1.1/DTD/svg11.dtd">
<svg version="1.1" id="Layer_1" xmlns="http://www.w3.org/2000/svg" xmlns:xlink="http://www.w3.org/1999/xlink" x="0px" y="0px"
	 width="1000px" height="1000px" viewBox="0 0 1000 1000" enable-background="new 0 0 1000 1000" xml:space="preserve">
<g>
	<g>
		<g>
			<path d="M572.974,240.304c-89.819-14.197-176.39,19.105-234.022,81.265c0.265,0.023,0.513,0.063,0.78,0.105
				c18.241,2.887,32.807,15.614,37.277,32.51l11.545,35.796c0.118,0.341,0.235,0.663,0.322,0.969l0.124,0.392
				c0.045,0.16,0.108,0.304,0.149,0.464c38.64-50.867,103.359-79.459,170.756-68.803c97.562,15.421,164.399,107.358,148.973,204.94
				c-15.423,97.562-107.362,164.4-204.926,148.977C428.564,665,371.521,607.416,356.592,536.836
				c-1.272-5.997-2.228-12.081-2.879-18.257c14.478-10.93,25.106-27.996,28.313-48.277c1.347-8.533,1.269-16.921-0.049-24.895
				l0.002-0.017c-0.004-0.05-0.018-0.086-0.027-0.139l-6.07-33.319l-0.902-4.925c-0.172-3.638-0.845-7.188-1.934-10.611
				l-0.012-0.037c-0.102-0.306-0.187-0.624-0.31-0.931l-11.812-36.586c-2.548-10.268-11.738-18.725-23.795-20.63
				c-4.483-0.708-8.845-0.433-12.867,0.646c-6.802,1.841-12.589,5.976-16.109,11.606l-23.148,32.01l-0.045,0.076
				c-2.044,2.866-3.742,5.971-5.013,9.294l-18.608,34.493l0.051,0.005c-3.693,7.183-6.356,15.134-7.709,23.67
				c-3.548,22.441,2.769,43.934,15.507,59.226c0.285,8.28,0.969,16.492,2.04,24.613c14.679,112.612,101.923,207.151,219.664,225.766
				c143.164,22.63,278.061-75.439,300.693-218.602C814.208,397.836,716.133,262.936,572.974,240.304z"/>
			<path d="M284.63,630.08c-3.748,43.08-19.551,109.029-79.45,132.864c0,0,77.391,0.567,128.388-66.042
				c-1.094-1.107-2.183-2.212-3.259-3.335C312.166,674.633,296.799,653.171,284.63,630.08z"/>
		</g>
	</g>
	<g>
		<path d="M444.46,537.081c-19.529,0-35.415-15.889-35.415-35.416c0-19.529,15.886-35.418,35.415-35.418
			c19.53,0,35.417,15.889,35.417,35.418C479.877,521.192,463.99,537.081,444.46,537.081z"/>
		<path d="M531.417,537.081c-19.527,0-35.417-15.889-35.417-35.416c0-19.529,15.89-35.418,35.417-35.418
			c19.53,0,35.417,15.889,35.417,35.418C566.835,521.192,550.947,537.081,531.417,537.081z"/>
		<path d="M618.375,537.081c-19.532,0-35.419-15.889-35.419-35.416c0-19.529,15.888-35.418,35.419-35.418
			c19.527,0,35.417,15.889,35.417,35.418C653.792,521.192,637.903,537.081,618.375,537.081z"/>
	</g>
</g>
</svg>
