<?xml version="1.0" encoding="utf-8"?>
<!-- Generator: Adobe Illustrator 15.1.0, SVG Export Plug-In . SVG Version: 6.00 Build 0)  -->
<!DOCTYPE svg PUBLIC "-//W3C//DTD SVG 1.1//EN" "http://www.w3.org/Graphics/SVG/1.1/DTD/svg11.dtd">
<svg version="1.1" id="Layer_1" xmlns="http://www.w3.org/2000/svg" xmlns:xlink="http://www.w3.org/1999/xlink" x="0px" y="0px"
	 width="1000px" height="796px" viewBox="0 0 1000 796" enable-background="new 0 0 1000 796" xml:space="preserve">
<g>
	<g>
		<g>
			<g>
				<path d="M532.753,188.477c-57.017-9.012-111.972,12.127-148.555,51.586c0.167,0.014,0.326,0.04,0.494,0.067
					c11.58,1.832,20.826,9.912,23.664,20.636l7.328,22.724c0.074,0.216,0.149,0.42,0.204,0.615l0.079,0.249
					c0.029,0.102,0.068,0.193,0.094,0.294c24.529-32.29,65.612-50.44,108.395-43.676c61.932,9.79,104.36,68.15,94.566,130.095
					c-9.79,61.931-68.151,104.359-130.085,94.569c-47.854-7.566-84.064-44.12-93.541-88.923c-0.809-3.807-1.415-7.669-1.828-11.59
					c9.19-6.937,15.937-17.771,17.972-30.645c0.855-5.417,0.807-10.742-0.03-15.803l0.001-0.011
					c-0.002-0.032-0.012-0.055-0.018-0.089l-3.853-21.15l-0.573-3.126c-0.11-2.31-0.537-4.563-1.228-6.736l-0.007-0.024
					c-0.065-0.193-0.118-0.396-0.198-0.591l-7.497-23.225c-1.618-6.518-7.452-11.886-15.105-13.096
					c-2.846-0.449-5.614-0.274-8.168,0.41c-4.317,1.168-7.991,3.793-10.226,7.368l-14.695,20.319l-0.028,0.048
					c-1.297,1.819-2.375,3.791-3.183,5.9l-11.812,21.896l0.032,0.003c-2.344,4.56-4.035,9.607-4.893,15.026
					c-2.253,14.245,1.757,27.888,9.844,37.596c0.18,5.256,0.613,10.469,1.294,15.624c9.318,71.485,64.7,131.497,139.441,143.314
					c90.878,14.365,176.51-47.889,190.877-138.767C685.886,288.477,623.63,202.843,532.753,188.477z"/>
				<path d="M349.715,435.902c-2.379,27.347-12.411,69.211-50.434,84.341c0,0,49.126,0.36,81.499-41.923
					c-0.694-0.703-1.386-1.404-2.069-2.118C367.194,464.185,357.44,450.561,349.715,435.902z"/>
			</g>
		</g>
		<g>
			<path d="M451.173,376.869c-12.396,0-22.48-10.086-22.48-22.482c0-12.396,10.084-22.483,22.48-22.483
				c12.398,0,22.482,10.087,22.482,22.483C473.656,366.782,463.572,376.869,451.173,376.869z"/>
			<path d="M506.374,376.869c-12.396,0-22.482-10.086-22.482-22.482c0-12.396,10.086-22.483,22.482-22.483
				c12.397,0,22.482,10.087,22.482,22.483C528.856,366.782,518.771,376.869,506.374,376.869z"/>
			<path d="M561.574,376.869c-12.398,0-22.483-10.086-22.483-22.482c0-12.396,10.085-22.483,22.483-22.483
				c12.396,0,22.482,10.087,22.482,22.483C584.056,366.782,573.97,376.869,561.574,376.869z"/>
		</g>
	</g>
	<g>
		<path d="M328.356,567.996l-12.787,35.564c-1.176,3.332-3.799,4.997-7.865,4.997c-4.067,0-6.689-1.665-7.865-4.995l-8.221-23.426
			l-8.379,23.424c-1.177,3.332-3.796,4.997-7.861,4.997c-4.066,0-6.687-1.665-7.861-4.997l-12.565-35.564
			c-0.197-0.588-0.294-1.15-0.294-1.69c0-1.225,0.464-2.241,1.394-3.049c0.929-0.808,1.98-1.213,3.155-1.213
			c2.004,0,3.349,0.982,4.035,2.944l12.218,34.143l11.528-32.237c1.077-3.036,2.646-4.556,4.704-4.556
			c1.957,0,3.477,1.52,4.555,4.556l11.538,32.263l12.284-34.167c0.684-1.963,2.005-2.945,3.962-2.945
			c1.221,0,2.297,0.405,3.227,1.213c0.929,0.808,1.394,1.825,1.394,3.049C328.65,566.846,328.551,567.408,328.356,567.996z"/>
		<path d="M370.312,596.725h-25.645c1.567,2.695,4.335,4.042,8.304,4.042c1.518,0,2.705,0.453,3.563,1.359
			c0.856,0.907,1.286,1.972,1.286,3.196c0,1.175-0.417,2.179-1.25,3.013c-0.833,0.832-2.033,1.249-3.6,1.249
			c-5.537,0-9.993-1.701-13.373-5.106c-3.381-3.404-5.071-7.899-5.071-13.484c0-5.878,1.641-10.568,4.925-14.071
			c3.28-3.502,7.86-5.254,13.739-5.254c5.634,0,9.994,2.107,13.079,6.321c2.693,3.772,4.042,8.499,4.042,14.181V596.725z
			 M360.98,587.909c-0.98-4.948-3.576-7.421-7.789-7.421c-5.536,0-8.743,2.474-9.626,7.421H360.98z"/>
		<path d="M403.171,577.475c3.32,3.919,4.98,8.597,4.98,14.034c0,4.849-1.396,8.891-4.188,12.124
			c-3.086,3.627-7.324,5.438-12.712,5.438c-2.352,0-4.581-0.588-6.687-1.764c-0.835,1.176-2.009,1.764-3.527,1.764
			c-1.175,0-2.205-0.393-3.086-1.18c-0.883-0.786-1.322-1.868-1.322-3.245v-35.827c0-1.376,0.443-2.458,1.334-3.244
			c0.886-0.787,1.925-1.18,3.11-1.18c1.235,0,2.283,0.393,3.148,1.175c0.865,0.784,1.298,1.862,1.298,3.233v5.658
			c1.465-1.567,3.515-2.351,6.151-2.351C396.361,572.11,400.194,573.899,403.171,577.475z M396.353,583.133
			c-1.114-1.324-2.908-1.986-5.38-1.986c-3.635,0-5.452,1.521-5.452,4.557v9.112c0,1.666,0.848,3.038,2.545,4.114
			c1.26,0.882,2.325,1.322,3.197,1.322c2.715,0,4.775-0.881,6.181-2.645c1.212-1.469,1.817-3.428,1.817-5.878
			C399.261,588.301,398.292,585.435,396.353,583.133z"/>
		<path d="M489.419,567.996l-12.785,35.564c-1.178,3.332-3.8,4.997-7.866,4.997c-4.067,0-6.69-1.665-7.866-4.995l-8.221-23.426
			l-8.379,23.424c-1.175,3.332-3.797,4.997-7.86,4.997c-4.067,0-6.688-1.665-7.862-4.997l-12.564-35.564
			c-0.197-0.588-0.295-1.15-0.295-1.69c0-1.225,0.464-2.241,1.395-3.049c0.929-0.808,1.979-1.213,3.154-1.213
			c2.004,0,3.35,0.982,4.035,2.944l12.218,34.143l11.529-32.237c1.077-3.036,2.646-4.556,4.703-4.556
			c1.958,0,3.477,1.52,4.555,4.556l11.539,32.263l12.283-34.167c0.684-1.963,2.005-2.945,3.962-2.945
			c1.221,0,2.297,0.405,3.227,1.213c0.929,0.808,1.395,1.825,1.395,3.049C489.714,566.846,489.615,567.408,489.419,567.996z"/>
		<path d="M525.865,586.613v18.039c0,1.424-0.445,2.517-1.334,3.276c-0.889,0.761-1.927,1.142-3.111,1.142
			c-1.234,0-2.285-0.379-3.149-1.139c-0.864-0.759-1.296-1.849-1.296-3.269V586.66c0-1.568-0.546-2.756-1.634-3.564
			c-1.09-0.808-2.433-1.213-4.03-1.213c-1.694,0-3.17,0.441-4.429,1.323c-1.404,0.931-2.105,2.13-2.105,3.6v17.856
			c0,1.42-0.433,2.51-1.297,3.269c-0.864,0.76-1.915,1.139-3.147,1.139c-1.187,0-2.225-0.38-3.114-1.14
			c-0.888-0.76-1.332-1.853-1.332-3.276v-37.092c0-1.423,0.444-2.515,1.332-3.275c0.89-0.759,1.928-1.141,3.114-1.141
			c1.232,0,2.283,0.38,3.147,1.138c0.864,0.761,1.297,1.85,1.297,3.271v6.906c2.247-0.929,4.515-1.396,6.81-1.396
			c3.856,0,7.128,1.153,9.813,3.46C524.375,579.03,525.865,582.393,525.865,586.613z"/>
		<path d="M566.424,609.07h-19.766c-4.115,0-7.398-1.139-9.846-3.417c-2.45-2.277-3.674-5.498-3.674-9.662
			c0-4.556,1.586-8.033,4.763-10.435c2.782-2.155,6.396-3.232,10.842-3.232c1.366,0,2.856,0.319,4.467,0.955
			c1.855,0.735,3.296,1.667,4.322,2.792c0-4.016-2.436-6.025-7.306-6.025c-1.655,0-2.995-0.49-4.019-1.47
			c-1.023-0.979-1.534-2.082-1.534-3.306c0-2.694,1.861-4.042,5.585-4.042c4.556,0,8.304,1.103,11.242,3.307
			c3.281,2.45,4.923,5.854,4.923,10.213V609.07z M557.533,600.252v-3.453c0-1.861-1.043-3.307-3.129-4.335
			c-1.699-0.882-3.566-1.323-5.604-1.323c-4.514,0-6.771,1.617-6.771,4.85c0,2.89,1.941,4.311,5.823,4.261H557.533z"/>
		<path d="M593.127,572.552c1.361,0,2.433,0.428,3.211,1.285c0.778,0.858,1.168,1.9,1.168,3.124c0,1.176-0.39,2.205-1.168,3.086
			c-0.778,0.882-1.85,1.323-3.211,1.323h-6.275v15.871c0,1.519,0.072,2.45,0.216,2.792c0.29,0.49,1.039,0.735,2.247,0.735
			c0.871,0,1.909-0.123,3.117-0.368c1.305-0.195,2.476,0.173,3.515,1.102c1.039,0.932,1.56,2.034,1.56,3.308
			c0,3.185-2.758,4.775-8.272,4.775c-7.516,0-11.273-4.114-11.273-12.344v-15.945c-1.225-0.098-2.181-0.563-2.865-1.396
			c-0.688-0.833-1.029-1.812-1.029-2.939c0-1.371,1.297-2.84,3.895-4.408v-3.528c0-1.371,0.444-2.449,1.333-3.232
			c0.889-0.784,1.927-1.177,3.112-1.177c1.234,0,2.284,0.393,3.148,1.177c0.864,0.783,1.298,1.861,1.298,3.232v3.528H593.127z"/>
		<path d="M635.861,596.873c0,4.508-1.837,7.838-5.511,9.993c-2.939,1.716-6.81,2.573-11.609,2.573
			c-2.842,0-6.245-0.735-10.215-2.205c-1.958-0.686-2.938-2.008-2.938-3.968c0-1.175,0.404-2.241,1.215-3.196
			c0.812-0.956,1.832-1.434,3.062-1.434c0.539,0,1.08,0.124,1.623,0.369c3.046,1.078,5.479,1.616,7.299,1.616
			c1.818,0,3.465-0.221,4.938-0.661c2.164-0.637,3.245-1.618,3.245-2.94c0-0.93-1.967-1.738-5.897-2.425
			c-5.211-0.881-8.676-1.714-10.396-2.498c-3.883-1.764-5.824-4.557-5.824-8.377c0-4.115,1.837-7.298,5.511-9.552
			c3.086-1.911,6.808-2.866,11.169-2.866c3.673,0,6.931,0.637,9.772,1.911c1.764,0.784,2.645,2.083,2.645,3.894
			c0,1.176-0.416,2.241-1.248,3.196c-0.834,0.956-1.838,1.434-3.013,1.434c-0.688,0-1.349-0.149-1.984-0.441
			c-1.715-0.784-3.772-1.176-6.172-1.176c-2.303,0-3.797,0.05-4.482,0.147c-2.106,0.393-3.16,1.322-3.16,2.792
			c0,0.833,2.082,1.69,6.246,2.572c5.438,1.127,8.842,1.984,10.214,2.571C634.024,589.771,635.861,592.66,635.861,596.873z"/>
		<path d="M684.578,603.118c0.195,0.588,0.294,1.127,0.294,1.617c0,1.274-0.469,2.314-1.405,3.123
			c-0.937,0.808-2.021,1.212-3.254,1.212c-1.971,0-3.302-0.973-3.992-2.919l-2.858-7.882h-18.683l-2.887,7.858
			c-0.686,1.963-2.03,2.943-4.034,2.943c-1.175,0-2.227-0.404-3.154-1.212c-0.932-0.809-1.395-1.825-1.395-3.049
			c0-0.54,0.097-1.103,0.294-1.691l12.713-35.563c1.225-3.282,3.845-4.924,7.862-4.924c4.064,0,6.709,1.663,7.934,4.987
			L684.578,603.118z M670.294,589.599l-6.34-17.717l-6.254,17.717H670.294z"/>
		<path d="M730.428,578.136c0,4.262-1.394,7.936-4.179,11.021c-2.785,3.087-6.279,4.63-10.48,4.63h-14.807v10.853
			c0,1.428-0.445,2.524-1.334,3.286c-0.888,0.764-1.927,1.145-3.112,1.145c-1.185,0-2.223-0.38-3.111-1.14
			c-0.889-0.76-1.333-1.853-1.333-3.276v-41.508h23.661c4.261,0,7.774,1.458,10.543,4.372
			C729.043,570.432,730.428,573.973,730.428,578.136z M721.536,578.136c0-1.861-0.547-3.354-1.641-4.481
			c-1.095-1.127-2.494-1.691-4.195-1.691h-14.738v13.006h14.717c1.757,0,3.172-0.685,4.247-2.058
			C721,581.541,721.536,579.949,721.536,578.136z"/>
		<path d="M745.344,604.654c0,1.424-0.434,2.516-1.298,3.276c-0.865,0.759-1.914,1.14-3.148,1.14c-1.186,0-2.224-0.38-3.112-1.14
			c-0.889-0.76-1.333-1.853-1.333-3.276v-37.092c0-1.374,0.444-2.453,1.333-3.239c0.888-0.785,1.927-1.177,3.112-1.177
			c1.234,0,2.283,0.393,3.148,1.177c0.865,0.786,1.298,1.865,1.298,3.239V604.654z"/>
	</g>
</g>
</svg>
